<svg data-v-423bf9ae="" xmlns="http://www.w3.org/2000/svg" viewBox="0 0 652 90" class="iconLeftSlogan"><!----><!----><!----><g data-v-423bf9ae="" id="634556c7-02ec-4422-9d52-38ef67f96c73" fill="black" transform="matrix(5.597014785954833,0,0,5.597014785954833,65.64067712671107,-22.332089287755657)"><path d="M1.86 4.97L1.86 4.97L1.86 4.97Q2.58 4.51 3.40 4.25L3.40 4.25L3.40 4.25Q4.21 3.99 5.00 3.99L5.00 3.99L5.00 3.99Q5.10 3.99 5.21 4.00L5.21 4.00L5.21 4.00Q5.33 4.00 5.56 4.02L5.56 4.02L5.68 12.63L8.62 4.06L9.60 4.06L5.71 14.49L3.58 14.49L3.58 4.93L3.58 4.93Q2.49 5.26 1.94 6.05L1.94 6.05L1.94 6.05Q1.39 6.83 1.39 8.04L1.39 8.04L1.39 8.04Q1.39 8.30 1.42 8.50L1.42 8.50L1.42 8.50Q1.46 8.69 1.54 8.88L1.54 8.88L1.54 8.88Q1.57 8.93 1.57 8.95L1.57 8.95L1.57 8.95Q1.58 8.97 1.58 8.99L1.58 8.99L1.58 8.99Q0.80 8.99 0.44 8.66L0.44 8.66L0.44 8.66Q0.08 8.33 0.08 7.63L0.08 7.63L0.08 7.63Q0.08 6.93 0.55 6.23L0.55 6.23L0.55 6.23Q1.02 5.53 1.86 4.97ZM8.41 12.33L8.41 12.33L8.41 12.33Q8.41 11.54 8.67 10.64L8.67 10.64L8.67 10.64Q8.93 9.74 9.38 9.04L9.38 9.04L9.38 9.04Q9.90 8.22 10.63 7.79L10.63 7.79L10.63 7.79Q11.35 7.36 12.25 7.36L12.25 7.36L12.25 7.36Q13.15 7.36 13.59 7.92L13.59 7.92L13.59 7.92Q14.04 8.48 14.04 9.60L14.04 9.60L14.04 9.60Q14.07 9.62 14.11 9.63L14.11 9.63L14.11 9.63Q14.14 9.63 14.20 9.63L14.20 9.63L14.20 9.63Q14.63 9.63 15.23 9.39L15.23 9.39L15.23 9.39Q15.83 9.16 16.35 8.79L16.35 8.79L16.48 9.17L16.48 9.17Q16.09 9.59 15.43 9.90L15.43 9.90L15.43 9.90Q14.78 10.21 14 10.33L14 10.33L14 10.33Q13.83 12.22 12.91 13.38L12.91 13.38L12.91 13.38Q11.98 14.55 10.65 14.55L10.65 14.55L10.65 14.55Q9.56 14.55 8.99 13.99L8.99 13.99L8.99 13.99Q8.41 13.43 8.41 12.33ZM12.36 8.22L12.36 8.22L12.36 8.22Q11.69 8.22 11.09 9.58L11.09 9.58L11.09 9.58Q10.50 10.93 10.50 12.15L10.50 12.15L10.50 12.15Q10.50 12.81 10.65 13.05L10.65 13.05L10.65 13.05Q10.79 13.29 11.21 13.29L11.21 13.29L11.21 13.29Q11.73 13.29 12.20 12.45L12.20 12.45L12.20 12.45Q12.67 11.61 12.84 10.37L12.84 10.37L12.84 10.37Q12.64 10.33 12.55 10.19L12.55 10.19L12.55 10.19Q12.46 10.04 12.46 9.79L12.46 9.79L12.46 9.79Q12.46 9.52 12.57 9.32L12.57 9.32L12.57 9.32Q12.68 9.13 12.89 9.03L12.89 9.03L12.89 9.03Q12.87 8.58 12.75 8.40L12.75 8.40L12.75 8.40Q12.63 8.22 12.36 8.22ZM14.73 12.89L14.73 12.89L14.73 12.89Q14.73 12.71 14.76 12.48L14.76 12.48L14.76 12.48Q14.78 12.25 14.84 11.98L14.84 11.98L16.34 4.97L18.41 4.69L16.80 12.25L16.80 12.25Q16.77 12.38 16.76 12.48L16.76 12.48L16.76 12.48Q16.74 12.59 16.74 12.70L16.74 12.70L16.74 12.70Q16.74 12.98 16.88 13.10L16.88 13.10L16.88 13.10Q17.01 13.22 17.32 13.22L17.32 13.22L17.32 13.22Q17.71 13.22 18.06 12.87L18.06 12.87L18.06 12.87Q18.41 12.53 18.58 11.98L18.58 11.98L19.17 11.98L19.17 11.98Q18.72 13.26 17.96 13.92L17.96 13.92L17.96 13.92Q17.21 14.57 16.23 14.57L16.23 14.57L16.23 14.57Q15.53 14.57 15.13 14.13L15.13 14.13L15.13 14.13Q14.73 13.69 14.73 12.89ZM20.75 13.22L20.75 13.22L20.75 13.22Q21.11 13.22 21.40 12.90L21.40 12.90L21.40 12.90Q21.69 12.59 21.87 11.98L21.87 11.98L22.82 7.49L24.84 7.49L23.83 12.25L23.83 12.25Q23.80 12.38 23.79 12.48L23.79 12.48L23.79 12.48Q23.77 12.59 23.77 12.70L23.77 12.70L23.77 12.70Q23.77 12.98 23.91 13.10L23.91 13.10L23.91 13.10Q24.04 13.22 24.35 13.22L24.35 13.22L24.35 13.22Q24.71 13.22 25.00 12.89L25.00 12.89L25.00 12.89Q25.30 12.57 25.48 11.98L25.48 11.98L26.07 11.98L26.07 11.98Q25.62 13.27 24.91 13.92L24.91 13.92L24.91 13.92Q24.19 14.57 23.25 14.57L23.25 14.57L23.25 14.57Q22.65 14.57 22.29 14.23L22.29 14.23L22.29 14.23Q21.92 13.89 21.87 13.24L21.87 13.24L21.87 13.24Q21.46 13.92 20.95 14.25L20.95 14.25L20.95 14.25Q20.44 14.57 19.80 14.57L19.80 14.57L19.80 14.57Q19.10 14.57 18.70 14.13L18.70 14.13L18.70 14.13Q18.30 13.69 18.30 12.89L18.30 12.89L18.30 12.89Q18.30 12.71 18.33 12.48L18.33 12.48L18.33 12.48Q18.35 12.25 18.41 11.98L18.41 11.98L19.36 7.49L21.38 7.49L20.37 12.25L20.37 12.25Q20.34 12.36 20.34 12.45L20.34 12.45L20.34 12.45Q20.33 12.54 20.33 12.64L20.33 12.64L20.33 12.64Q20.33 12.92 20.43 13.07L20.43 13.07L20.43 13.07Q20.54 13.22 20.75 13.22ZM28.88 12.99L28.88 12.99L28.88 12.99Q28.88 12.74 28.95 12.36L28.95 12.36L28.95 12.36Q29.01 11.98 29.20 11.16L29.20 11.16L29.20 11.16Q29.40 10.36 29.46 10.01L29.46 10.01L29.46 10.01Q29.51 9.66 29.51 9.42L29.51 9.42L29.51 9.42Q29.51 9.07 29.39 8.89L29.39 8.89L29.39 8.89Q29.26 8.71 29.01 8.71L29.01 8.71L29.01 8.71Q28.67 8.71 28.39 9.05L28.39 9.05L28.39 9.05Q28.10 9.39 27.92 10.00L27.92 10.00L26.96 14.49L24.95 14.49L26.43 7.49L28.45 7.49L28.29 8.22L28.29 8.22Q28.64 7.83 29.05 7.63L29.05 7.63L29.05 7.63Q29.46 7.43 29.93 7.43L29.93 7.43L29.93 7.43Q30.67 7.43 31.08 7.84L31.08 7.84L31.08 7.84Q31.49 8.25 31.49 9.02L31.49 9.02L31.49 9.02Q31.49 9.34 31.41 9.78L31.41 9.78L31.41 9.78Q31.33 10.22 31.11 11.13L31.11 11.13L31.11 11.13Q30.93 11.84 30.87 12.14L30.87 12.14L30.87 12.14Q30.81 12.43 30.81 12.63L30.81 12.63L30.81 12.63Q30.81 12.92 30.95 13.07L30.95 13.07L30.95 13.07Q31.09 13.22 31.37 13.22L31.37 13.22L31.37 13.22Q31.72 13.22 31.98 12.98L31.98 12.98L31.98 12.98Q32.23 12.74 32.55 11.98L32.55 11.98L33.14 11.98L33.14 11.98Q32.69 13.29 32.05 13.93L32.05 13.93L32.05 13.93Q31.42 14.57 30.53 14.57L30.53 14.57L30.53 14.57Q29.75 14.57 29.32 14.15L29.32 14.15L29.32 14.15Q28.88 13.72 28.88 12.99ZM32.93 8.05L33.04 7.49L33.50 7.49L33.92 5.56L35.99 5.28L35.52 7.49L36.36 7.49L36.25 8.05L35.41 8.05L34.51 12.25L34.51 12.25Q34.48 12.38 34.47 12.48L34.47 12.48L34.47 12.48Q34.45 12.59 34.45 12.70L34.45 12.70L34.45 12.70Q34.45 12.98 34.59 13.10L34.59 13.10L34.59 13.10Q34.72 13.22 35.03 13.22L35.03 13.22L35.03 13.22Q35.42 13.22 35.77 12.87L35.77 12.87L35.77 12.87Q36.12 12.53 36.29 11.98L36.29 11.98L36.88 11.98L36.88 11.98Q36.43 13.26 35.67 13.92L35.67 13.92L35.67 13.92Q34.92 14.57 33.94 14.57L33.94 14.57L33.94 14.57Q33.24 14.57 32.84 14.13L32.84 14.13L32.84 14.13Q32.44 13.69 32.44 12.89L32.44 12.89L32.44 12.89Q32.44 12.71 32.47 12.48L32.47 12.48L32.47 12.48Q32.49 12.25 32.55 11.98L32.55 11.98L33.39 8.05L32.93 8.05ZM41.36 8.71L41.36 8.71L41.36 8.71Q41.36 9.87 40.40 10.73L40.40 10.73L40.40 10.73Q39.45 11.59 38.14 11.66L38.14 11.66L38.14 11.66Q38.12 11.90 38.11 12.02L38.11 12.02L38.11 12.02Q38.11 12.14 38.11 12.22L38.11 12.22L38.11 12.22Q38.11 12.87 38.32 13.13L38.32 13.13L38.32 13.13Q38.54 13.40 39.12 13.40L39.12 13.40L39.12 13.40Q39.77 13.40 40.33 13.10L40.33 13.10L40.33 13.10Q40.88 12.80 41.59 11.98L41.59 11.98L42.07 11.98L42.07 11.98Q41.26 13.30 40.31 13.94L40.31 13.94L40.31 13.94Q39.35 14.57 38.22 14.57L38.22 14.57L38.22 14.57Q37.14 14.57 36.59 14.01L36.59 14.01L36.59 14.01Q36.04 13.45 36.04 12.35L36.04 12.35L36.04 12.35Q36.04 11.55 36.29 10.65L36.29 10.65L36.29 10.65Q36.54 9.76 36.96 9.06L36.96 9.06L36.96 9.06Q37.48 8.22 38.20 7.79L38.20 7.79L38.20 7.79Q38.92 7.36 39.82 7.36L39.82 7.36L39.82 7.36Q40.59 7.36 40.97 7.69L40.97 7.69L40.97 7.69Q41.36 8.02 41.36 8.71ZM39.93 8.11L39.93 8.11L39.93 8.11Q39.45 8.11 38.97 8.95L38.97 8.95L38.97 8.95Q38.49 9.80 38.25 10.99L38.25 10.99L38.25 10.99Q39.06 10.93 39.67 10.24L39.67 10.24L39.67 10.24Q40.28 9.55 40.28 8.68L40.28 8.68L40.28 8.68Q40.28 8.39 40.19 8.25L40.19 8.25L40.19 8.25Q40.11 8.11 39.93 8.11ZM46.73 8.71L46.73 8.71L46.73 8.71Q46.73 9.87 45.78 10.73L45.78 10.73L45.78 10.73Q44.83 11.59 43.51 11.66L43.51 11.66L43.51 11.66Q43.50 11.90 43.49 12.02L43.49 12.02L43.49 12.02Q43.48 12.14 43.48 12.22L43.48 12.22L43.48 12.22Q43.48 12.87 43.70 13.13L43.70 13.13L43.70 13.13Q43.92 13.40 44.49 13.40L44.49 13.40L44.49 13.40Q45.15 13.40 45.70 13.10L45.70 13.10L45.70 13.10Q46.26 12.80 46.97 11.98L46.97 11.98L47.45 11.98L47.45 11.98Q46.63 13.30 45.68 13.94L45.68 13.94L45.68 13.94Q44.73 14.57 43.60 14.57L43.60 14.57L43.60 14.57Q42.52 14.57 41.96 14.01L41.96 14.01L41.96 14.01Q41.41 13.45 41.41 12.35L41.41 12.35L41.41 12.35Q41.41 11.55 41.66 10.65L41.66 10.65L41.66 10.65Q41.92 9.76 42.34 9.06L42.34 9.06L42.34 9.06Q42.85 8.22 43.57 7.79L43.57 7.79L43.57 7.79Q44.30 7.36 45.19 7.36L45.19 7.36L45.19 7.36Q45.96 7.36 46.35 7.69L46.35 7.69L46.35 7.69Q46.73 8.02 46.73 8.71ZM45.30 8.11L45.30 8.11L45.30 8.11Q44.83 8.11 44.34 8.95L44.34 8.95L44.34 8.95Q43.86 9.80 43.62 10.99L43.62 10.99L43.62 10.99Q44.44 10.93 45.04 10.24L45.04 10.24L45.04 10.24Q45.65 9.55 45.65 8.68L45.65 8.68L45.65 8.68Q45.65 8.39 45.57 8.25L45.57 8.25L45.57 8.25Q45.49 8.11 45.30 8.11ZM49.59 9.17L48.47 14.49L46.45 14.49L47.94 7.49L49.95 7.49L49.77 8.36L49.77 8.36Q50.39 7.84 50.74 7.67L50.74 7.67L50.74 7.67Q51.10 7.49 51.46 7.49L51.46 7.49L51.46 7.49Q51.90 7.49 52.16 7.79L52.16 7.79L52.16 7.79Q52.43 8.09 52.43 8.54L52.43 8.54L52.43 8.54Q52.43 8.97 52.15 9.27L52.15 9.27L52.15 9.27Q51.87 9.56 51.42 9.56L51.42 9.56L51.42 9.56Q51.18 9.56 51.05 9.45L51.05 9.45L51.05 9.45Q50.92 9.34 50.86 8.99L50.86 8.99L50.86 8.99Q50.82 8.76 50.76 8.70L50.76 8.70L50.76 8.70Q50.71 8.64 50.61 8.64L50.61 8.64L50.61 8.64Q50.37 8.64 50.16 8.74L50.16 8.74L50.16 8.74Q49.95 8.83 49.59 9.17L49.59 9.17ZM57.88 11.19L57.88 11.19L57.88 11.19Q57.88 12.35 58.28 12.86L58.28 12.86L58.28 12.86Q58.69 13.37 59.56 13.37L59.56 13.37L59.56 13.37Q60.35 13.37 61.08 13.00L61.08 13.00L61.08 13.00Q61.80 12.63 62.29 11.97L62.29 11.97L62.61 12.11L62.61 12.11Q62.15 13.30 61.01 14.01L61.01 14.01L61.01 14.01Q59.86 14.71 58.62 14.71L58.62 14.71L58.62 14.71Q56.99 14.71 56.27 13.89L56.27 13.89L56.27 13.89Q55.55 13.08 55.55 11.27L55.55 11.27L55.55 11.27Q55.55 10.11 55.85 8.85L55.85 8.85L55.85 8.85Q56.14 7.59 56.66 6.59L56.66 6.59L56.66 6.59Q57.33 5.32 58.29 4.65L58.29 4.65L58.29 4.65Q59.25 3.99 60.44 3.99L60.44 3.99L60.44 3.99Q61.56 3.99 62.17 4.47L62.17 4.47L62.17 4.47Q62.78 4.96 62.78 5.87L62.78 5.87L62.78 5.87Q62.78 6.50 62.52 6.83L62.52 6.83L62.52 6.83Q62.27 7.15 61.80 7.15L61.80 7.15L61.80 7.15Q61.56 7.15 61.36 7.06L61.36 7.06L61.36 7.06Q61.15 6.97 61.00 6.79L61.00 6.79L61.00 6.79Q61.25 6.66 61.45 6.28L61.45 6.28L61.45 6.28Q61.64 5.89 61.64 5.50L61.64 5.50L61.64 5.50Q61.64 5.10 61.42 4.87L61.42 4.87L61.42 4.87Q61.19 4.65 60.79 4.65L60.79 4.65L60.79 4.65Q60.17 4.65 59.57 5.40L59.57 5.40L59.57 5.40Q58.97 6.15 58.52 7.46L58.52 7.46L58.52 7.46Q58.21 8.36 58.04 9.33L58.04 9.33L58.04 9.33Q57.88 10.30 57.88 11.19ZM62.05 12.33L62.05 12.33L62.05 12.33Q62.05 11.54 62.31 10.64L62.31 10.64L62.31 10.64Q62.57 9.74 63.01 9.04L63.01 9.04L63.01 9.04Q63.53 8.22 64.26 7.79L64.26 7.79L64.26 7.79Q64.99 7.36 65.88 7.36L65.88 7.36L65.88 7.36Q66.78 7.36 67.23 7.92L67.23 7.92L67.23 7.92Q67.68 8.48 67.68 9.60L67.68 9.60L67.68 9.60Q67.70 9.62 67.74 9.63L67.74 9.63L67.74 9.63Q67.77 9.63 67.83 9.63L67.83 9.63L67.83 9.63Q68.26 9.63 68.87 9.39L68.87 9.39L68.87 9.39Q69.47 9.16 69.99 8.79L69.99 8.79L70.11 9.17L70.11 9.17Q69.72 9.59 69.07 9.90L69.07 9.90L69.07 9.90Q68.42 10.21 67.63 10.33L67.63 10.33L67.63 10.33Q67.47 12.22 66.54 13.38L66.54 13.38L66.54 13.38Q65.62 14.55 64.29 14.55L64.29 14.55L64.29 14.55Q63.20 14.55 62.62 13.99L62.62 13.99L62.62 13.99Q62.05 13.43 62.05 12.33ZM66.00 8.22L66.00 8.22L66.00 8.22Q65.32 8.22 64.73 9.58L64.73 9.58L64.73 9.58Q64.13 10.93 64.13 12.15L64.13 12.15L64.13 12.15Q64.13 12.81 64.28 13.05L64.28 13.05L64.28 13.05Q64.43 13.29 64.85 13.29L64.85 13.29L64.85 13.29Q65.37 13.29 65.83 12.45L65.83 12.45L65.83 12.45Q66.30 11.61 66.47 10.37L66.47 10.37L66.47 10.37Q66.28 10.33 66.19 10.19L66.19 10.19L66.19 10.19Q66.09 10.04 66.09 9.79L66.09 9.79L66.09 9.79Q66.09 9.52 66.21 9.32L66.21 9.32L66.21 9.32Q66.32 9.13 66.53 9.03L66.53 9.03L66.53 9.03Q66.50 8.58 66.38 8.40L66.38 8.40L66.38 8.40Q66.26 8.22 66.00 8.22ZM73.02 8.13L73.02 8.13L73.02 8.23L73.18 7.49L75.19 7.49L74.19 12.25L74.19 12.25Q74.16 12.38 74.14 12.48L74.14 12.48L74.14 12.48Q74.13 12.59 74.13 12.70L74.13 12.70L74.13 12.70Q74.13 13.01 74.27 13.15L74.27 13.15L74.27 13.15Q74.41 13.30 74.70 13.30L74.70 13.30L74.70 13.30Q75.07 13.30 75.36 12.96L75.36 12.96L75.36 12.96Q75.66 12.61 75.84 11.98L75.84 11.98L76.43 11.98L76.43 11.98Q75.98 13.27 75.26 13.92L75.26 13.92L75.26 13.92Q74.55 14.57 73.61 14.57L73.61 14.57L73.61 14.57Q73.01 14.57 72.65 14.24L72.65 14.24L72.65 14.24Q72.30 13.90 72.24 13.29L72.24 13.29L72.24 13.29Q71.81 13.93 71.28 14.25L71.28 14.25L71.28 14.25Q70.76 14.57 70.15 14.57L70.15 14.57L70.15 14.57Q69.29 14.57 68.79 13.99L68.79 13.99L68.79 13.99Q68.29 13.40 68.29 12.32L68.29 12.32L68.29 12.32Q68.29 11.54 68.53 10.68L68.53 10.68L68.53 10.68Q68.77 9.83 69.19 9.13L69.19 9.13L69.19 9.13Q69.71 8.30 70.39 7.86L70.39 7.86L70.39 7.86Q71.08 7.42 71.89 7.42L71.89 7.42L71.89 7.42Q72.44 7.42 72.73 7.61L72.73 7.61L72.73 7.61Q73.02 7.80 73.02 8.13ZM72.23 11.98L72.90 8.82L72.90 8.82Q72.90 8.61 72.74 8.45L72.74 8.45L72.74 8.45Q72.59 8.29 72.32 8.29L72.32 8.29L72.32 8.29Q71.55 8.29 70.96 9.58L70.96 9.58L70.96 9.58Q70.36 10.86 70.36 12.12L70.36 12.12L70.36 12.12Q70.36 12.67 70.52 12.94L70.52 12.94L70.52 12.94Q70.67 13.22 71.06 13.22L71.06 13.22L71.06 13.22Q71.43 13.22 71.77 12.87L71.77 12.87L71.77 12.87Q72.11 12.52 72.23 11.98L72.23 11.98ZM75.73 12.89L75.73 12.89L75.73 12.89Q75.73 12.71 75.75 12.48L75.75 12.48L75.75 12.48Q75.78 12.25 75.84 11.98L75.84 11.98L77.34 4.97L79.41 4.69L77.80 12.25L77.80 12.25Q77.77 12.38 77.76 12.48L77.76 12.48L77.76 12.48Q77.74 12.59 77.74 12.70L77.74 12.70L77.74 12.70Q77.74 12.98 77.88 13.10L77.88 13.10L77.88 13.10Q78.01 13.22 78.32 13.22L78.32 13.22L78.32 13.22Q78.71 13.22 79.06 12.87L79.06 12.87L79.06 12.87Q79.41 12.53 79.58 11.98L79.58 11.98L80.16 11.98L80.16 11.98Q79.72 13.26 78.96 13.92L78.96 13.92L78.96 13.92Q78.20 14.57 77.22 14.57L77.22 14.57L77.22 14.57Q76.52 14.57 76.13 14.13L76.13 14.13L76.13 14.13Q75.73 13.69 75.73 12.89ZM82.96 5.63L82.96 5.63L82.96 5.63Q82.96 6.09 82.64 6.41L82.64 6.41L82.64 6.41Q82.31 6.73 81.84 6.73L81.84 6.73L81.84 6.73Q81.38 6.73 81.06 6.41L81.06 6.41L81.06 6.41Q80.74 6.09 80.74 5.63L80.74 5.63L80.74 5.63Q80.74 5.17 81.06 4.84L81.06 4.84L81.06 4.84Q81.38 4.51 81.84 4.51L81.84 4.51L81.84 4.51Q82.31 4.51 82.64 4.84L82.64 4.84L82.64 4.84Q82.96 5.17 82.96 5.63ZM79.39 12.89L79.39 12.89L79.39 12.89Q79.39 12.71 79.42 12.48L79.42 12.48L79.42 12.48Q79.45 12.25 79.51 11.98L79.51 11.98L80.46 7.49L82.47 7.49L81.47 12.25L81.47 12.25Q81.44 12.38 81.42 12.48L81.42 12.48L81.42 12.48Q81.41 12.59 81.41 12.70L81.41 12.70L81.41 12.70Q81.41 12.98 81.54 13.10L81.54 13.10L81.54 13.10Q81.68 13.22 81.98 13.22L81.98 13.22L81.98 13.22Q82.38 13.22 82.73 12.87L82.73 12.87L82.73 12.87Q83.08 12.53 83.24 11.98L83.24 11.98L83.83 11.98L83.83 11.98Q83.38 13.26 82.63 13.92L82.63 13.92L82.63 13.92Q81.87 14.57 80.89 14.57L80.89 14.57L80.89 14.57Q80.19 14.57 79.79 14.13L79.79 14.13L79.79 14.13Q79.39 13.69 79.39 12.89ZM83.62 8.05L83.73 7.49L84.20 7.49L84.62 5.56L86.69 5.28L86.21 7.49L87.05 7.49L86.94 8.05L86.10 8.05L85.20 12.25L85.20 12.25Q85.18 12.38 85.16 12.48L85.16 12.48L85.16 12.48Q85.15 12.59 85.15 12.70L85.15 12.70L85.15 12.70Q85.15 12.98 85.28 13.10L85.28 13.10L85.28 13.10Q85.41 13.22 85.72 13.22L85.72 13.22L85.72 13.22Q86.11 13.22 86.46 12.87L86.46 12.87L86.46 12.87Q86.81 12.53 86.98 11.98L86.98 11.98L87.57 11.98L87.57 11.98Q87.12 13.26 86.37 13.92L86.37 13.92L86.37 13.92Q85.61 14.57 84.63 14.57L84.63 14.57L84.63 14.57Q83.93 14.57 83.53 14.13L83.53 14.13L83.53 14.13Q83.13 13.69 83.13 12.89L83.13 12.89L83.13 12.89Q83.13 12.71 83.16 12.48L83.16 12.48L83.16 12.48Q83.19 12.25 83.24 11.98L83.24 11.98L84.08 8.05L83.62 8.05ZM90.44 5.63L90.44 5.63L90.44 5.63Q90.44 6.09 90.11 6.41L90.11 6.41L90.11 6.41Q89.78 6.73 89.32 6.73L89.32 6.73L89.32 6.73Q88.86 6.73 88.54 6.41L88.54 6.41L88.54 6.41Q88.21 6.09 88.21 5.63L88.21 5.63L88.21 5.63Q88.21 5.17 88.54 4.84L88.54 4.84L88.54 4.84Q88.86 4.51 89.32 4.51L89.32 4.51L89.32 4.51Q89.78 4.51 90.11 4.84L90.11 4.84L90.11 4.84Q90.44 5.17 90.44 5.63ZM86.87 12.89L86.87 12.89L86.87 12.89Q86.87 12.71 86.90 12.48L86.90 12.48L86.90 12.48Q86.93 12.25 86.98 11.98L86.98 11.98L87.93 7.49L89.95 7.49L88.94 12.25L88.94 12.25Q88.91 12.38 88.90 12.48L88.90 12.48L88.90 12.48Q88.89 12.59 88.89 12.70L88.89 12.70L88.89 12.70Q88.89 12.98 89.02 13.10L89.02 13.10L89.02 13.10Q89.15 13.22 89.46 13.22L89.46 13.22L89.46 13.22Q89.85 13.22 90.20 12.87L90.20 12.87L90.20 12.87Q90.55 12.53 90.72 11.98L90.72 11.98L91.31 11.98L91.31 11.98Q90.86 13.26 90.10 13.92L90.10 13.92L90.10 13.92Q89.35 14.57 88.37 14.57L88.37 14.57L88.37 14.57Q87.67 14.57 87.27 14.13L87.27 14.13L87.27 14.13Q86.87 13.69 86.87 12.89ZM90.52 12.33L90.52 12.33L90.52 12.33Q90.52 11.54 90.78 10.64L90.78 10.64L90.78 10.64Q91.04 9.74 91.49 9.04L91.49 9.04L91.49 9.04Q92.01 8.22 92.74 7.79L92.74 7.79L92.74 7.79Q93.46 7.36 94.36 7.36L94.36 7.36L94.36 7.36Q95.26 7.36 95.70 7.92L95.70 7.92L95.70 7.92Q96.15 8.48 96.15 9.60L96.15 9.60L96.15 9.60Q96.18 9.62 96.22 9.63L96.22 9.63L96.22 9.63Q96.25 9.63 96.31 9.63L96.31 9.63L96.31 9.63Q96.74 9.63 97.34 9.39L97.34 9.39L97.34 9.39Q97.94 9.16 98.46 8.79L98.46 8.79L98.59 9.17L98.59 9.17Q98.20 9.59 97.55 9.90L97.55 9.90L97.55 9.90Q96.89 10.21 96.11 10.33L96.11 10.33L96.11 10.33Q95.94 12.22 95.02 13.38L95.02 13.38L95.02 13.38Q94.09 14.55 92.76 14.55L92.76 14.55L92.76 14.55Q91.67 14.55 91.10 13.99L91.10 13.99L91.10 13.99Q90.52 13.43 90.52 12.33ZM94.47 8.22L94.47 8.22L94.47 8.22Q93.80 8.22 93.21 9.58L93.21 9.58L93.21 9.58Q92.61 10.93 92.61 12.15L92.61 12.15L92.61 12.15Q92.61 12.81 92.76 13.05L92.76 13.05L92.76 13.05Q92.90 13.29 93.32 13.29L93.32 13.29L93.32 13.29Q93.84 13.29 94.31 12.45L94.31 12.45L94.31 12.45Q94.78 11.61 94.95 10.37L94.95 10.37L94.95 10.37Q94.75 10.33 94.66 10.19L94.66 10.19L94.66 10.19Q94.57 10.04 94.57 9.79L94.57 9.79L94.57 9.79Q94.57 9.52 94.68 9.32L94.68 9.32L94.68 9.32Q94.79 9.13 95.00 9.03L95.00 9.03L95.00 9.03Q94.98 8.58 94.86 8.40L94.86 8.40L94.86 8.40Q94.74 8.22 94.47 8.22ZM100.34 12.99L100.34 12.99L100.34 12.99Q100.34 12.74 100.40 12.36L100.40 12.36L100.40 12.36Q100.46 11.98 100.66 11.16L100.66 11.16L100.66 11.16Q100.86 10.36 100.91 10.01L100.91 10.01L100.91 10.01Q100.97 9.66 100.97 9.42L100.97 9.42L100.97 9.42Q100.97 9.07 100.84 8.89L100.84 8.89L100.84 8.89Q100.72 8.71 100.46 8.71L100.46 8.71L100.46 8.71Q100.13 8.71 99.84 9.05L99.84 9.05L99.84 9.05Q99.55 9.39 99.37 10.00L99.37 10.00L98.42 14.49L96.40 14.49L97.89 7.49L99.90 7.49L99.75 8.22L99.75 8.22Q100.10 7.83 100.51 7.63L100.51 7.63L100.51 7.63Q100.91 7.43 101.39 7.43L101.39 7.43L101.39 7.43Q102.13 7.43 102.54 7.84L102.54 7.84L102.54 7.84Q102.94 8.25 102.94 9.02L102.94 9.02L102.94 9.02Q102.94 9.34 102.87 9.78L102.87 9.78L102.87 9.78Q102.79 10.22 102.56 11.13L102.56 11.13L102.56 11.13Q102.38 11.84 102.33 12.14L102.33 12.14L102.33 12.14Q102.27 12.43 102.27 12.63L102.27 12.63L102.27 12.63Q102.27 12.92 102.41 13.07L102.41 13.07L102.41 13.07Q102.55 13.22 102.83 13.22L102.83 13.22L102.83 13.22Q103.18 13.22 103.43 12.98L103.43 12.98L103.43 12.98Q103.68 12.74 104.01 11.98L104.01 11.98L104.59 11.98L104.59 11.98Q104.15 13.29 103.51 13.93L103.51 13.93L103.51 13.93Q102.87 14.57 101.99 14.57L101.99 14.57L101.99 14.57Q101.21 14.57 100.77 14.15L100.77 14.15L100.77 14.15Q100.34 13.72 100.34 12.99Z"></path></g><!----><g data-v-423bf9ae="" id="e8994995-dd98-40c7-9b18-78524295d02e" transform="matrix(2.8125,0,0,2.8125,-21.194407999515533,0)" stroke="none" fill="black"><path d="M18.396 26.495L7.807 15.905 18.432 5.28l.707.707-9.918 9.918 9.882 9.883z"></path><path d="M23.194 1v4.194H19V1h4.194m1-1H18v6.194h6.194V0zM23.194 26.806V31H19v-4.194h4.194m1-1H18V32h6.194v-6.194z"></path></g><!----><g data-v-423bf9ae="" id="0732c225-21ae-4383-a70e-001c6b300cd5" fill="black" transform="matrix(1.8189972221705686,0,0,1.8189972221705686,65.32445395042029,53.37885011718548)"><path d="M6.03 6.54L4.17 13.02L3.30 13.02L0.42 3.78L1.18 3.78L3.74 12.45L6.16 3.78L6.97 3.78L9.39 12.46L11.98 3.78L12.70 3.78L9.81 13.02L8.95 13.02L7.08 6.54L6.57 4.54L6.55 4.54L6.03 6.54ZM25.12 3.64L25.12 3.64Q26.42 3.64 27.38 4.22L27.38 4.22L27.38 4.22Q28.34 4.80 28.85 5.87L28.85 5.87L28.85 5.87Q29.37 6.94 29.37 8.40L29.37 8.40L29.37 8.40Q29.37 9.86 28.85 10.93L28.85 10.93L28.85 10.93Q28.34 12.00 27.38 12.58L27.38 12.58L27.38 12.58Q26.42 13.16 25.12 13.16L25.12 13.16L25.12 13.16Q23.81 13.16 22.86 12.58L22.86 12.58L22.86 12.58Q21.90 12.00 21.38 10.93L21.38 10.93L21.38 10.93Q20.86 9.86 20.86 8.40L20.86 8.40L20.86 8.40Q20.86 6.94 21.38 5.87L21.38 5.87L21.38 5.87Q21.90 4.80 22.86 4.22L22.86 4.22L22.86 4.22Q23.81 3.64 25.12 3.64L25.12 3.64ZM25.12 4.28L25.12 4.28Q24.04 4.28 23.25 4.78L23.25 4.78L23.25 4.78Q22.46 5.28 22.03 6.21L22.03 6.21L22.03 6.21Q21.60 7.14 21.60 8.40L21.60 8.40L21.60 8.40Q21.60 9.66 22.03 10.59L22.03 10.59L22.03 10.59Q22.46 11.52 23.25 12.02L23.25 12.02L23.25 12.02Q24.04 12.52 25.12 12.52L25.12 12.52L25.12 12.52Q26.19 12.52 26.99 12.02L26.99 12.02L26.99 12.02Q27.79 11.52 28.22 10.59L28.22 10.59L28.22 10.59Q28.64 9.66 28.64 8.40L28.64 8.40L28.64 8.40Q28.64 7.14 28.22 6.21L28.22 6.21L28.22 6.21Q27.79 5.28 26.99 4.78L26.99 4.78L26.99 4.78Q26.19 4.28 25.12 4.28L25.12 4.28ZM45.64 13.02L44.81 13.02L42.17 9.02L42.13 9.02L39.40 9.02L39.40 13.02L38.70 13.02L38.70 3.78L42.13 3.78L42.13 3.78Q43.51 3.78 44.33 4.48L44.33 4.48L44.33 4.48Q45.15 5.18 45.15 6.40L45.15 6.40L45.15 6.40Q45.15 7.41 44.56 8.07L44.56 8.07L44.56 8.07Q43.97 8.74 42.95 8.93L42.95 8.93L45.64 13.02ZM39.40 4.42L39.40 8.36L42.11 8.36L42.11 8.36Q43.23 8.36 43.83 7.85L43.83 7.85L43.83 7.85Q44.42 7.35 44.42 6.40L44.42 6.40L44.42 6.40Q44.42 5.45 43.83 4.93L43.83 4.93L43.83 4.93Q43.23 4.42 42.11 4.42L42.11 4.42L39.40 4.42ZM60.59 13.02L57.20 8.04L55.36 9.91L55.36 13.02L54.66 13.02L54.66 3.78L55.36 3.78L55.36 8.96L60.42 3.78L61.35 3.78L57.69 7.52L61.45 13.02L60.59 13.02ZM87.70 4.42L82.10 4.42L82.10 7.99L86.53 7.99L86.53 8.65L82.10 8.65L82.10 13.02L81.40 13.02L81.40 3.78L87.70 3.78L87.70 4.42ZM100.00 3.64L100.00 3.64Q101.30 3.64 102.26 4.22L102.26 4.22L102.26 4.22Q103.22 4.80 103.74 5.87L103.74 5.87L103.74 5.87Q104.26 6.94 104.26 8.40L104.26 8.40L104.26 8.40Q104.26 9.86 103.74 10.93L103.74 10.93L103.74 10.93Q103.22 12.00 102.26 12.58L102.26 12.58L102.26 12.58Q101.30 13.16 100.00 13.16L100.00 13.16L100.00 13.16Q98.70 13.16 97.74 12.58L97.74 12.58L97.74 12.58Q96.78 12.00 96.26 10.93L96.26 10.93L96.26 10.93Q95.75 9.86 95.75 8.40L95.75 8.40L95.75 8.40Q95.75 6.94 96.26 5.87L96.26 5.87L96.26 5.87Q96.78 4.80 97.74 4.22L97.74 4.22L97.74 4.22Q98.70 3.64 100.00 3.64L100.00 3.64ZM100.00 4.28L100.00 4.28Q98.92 4.28 98.13 4.78L98.13 4.78L98.13 4.78Q97.34 5.28 96.92 6.21L96.92 6.21L96.92 6.21Q96.49 7.14 96.49 8.40L96.49 8.40L96.49 8.40Q96.49 9.66 96.92 10.59L96.92 10.59L96.92 10.59Q97.34 11.52 98.13 12.02L98.13 12.02L98.13 12.02Q98.92 12.52 100.00 12.52L100.00 12.52L100.00 12.52Q101.08 12.52 101.88 12.02L101.88 12.02L101.88 12.02Q102.68 11.52 103.10 10.59L103.10 10.59L103.10 10.59Q103.53 9.66 103.53 8.40L103.53 8.40L103.53 8.40Q103.53 7.14 103.10 6.21L103.10 6.21L103.10 6.21Q102.68 5.28 101.88 4.78L101.88 4.78L101.88 4.78Q101.08 4.28 100.00 4.28L100.00 4.28ZM120.53 13.02L119.70 13.02L117.05 9.02L117.01 9.02L114.28 9.02L114.28 13.02L113.58 13.02L113.58 3.78L117.01 3.78L117.01 3.78Q118.40 3.78 119.22 4.48L119.22 4.48L119.22 4.48Q120.04 5.18 120.04 6.40L120.04 6.40L120.04 6.40Q120.04 7.41 119.45 8.07L119.45 8.07L119.45 8.07Q118.86 8.74 117.84 8.93L117.84 8.93L120.53 13.02ZM114.28 4.42L114.28 8.36L117.00 8.36L117.00 8.36Q118.12 8.36 118.71 7.85L118.71 7.85L118.71 7.85Q119.31 7.35 119.31 6.40L119.31 6.40L119.31 6.40Q119.31 5.45 118.71 4.93L118.71 4.93L118.71 4.93Q118.12 4.42 117.00 4.42L117.00 4.42L114.28 4.42ZM147.34 3.78L148.04 3.78L148.04 13.02L147.34 13.02L147.34 8.65L141.62 8.65L141.62 13.02L140.92 13.02L140.92 3.78L141.62 3.78L141.62 7.99L147.34 7.99L147.34 3.78ZM164.96 3.78L164.96 9.65L164.96 9.65Q164.96 11.35 164.04 12.26L164.04 12.26L164.04 12.26Q163.11 13.16 161.41 13.16L161.41 13.16L161.41 13.16Q159.70 13.16 158.77 12.26L158.77 12.26L158.77 12.26Q157.84 11.35 157.84 9.65L157.84 9.65L157.84 3.78L158.54 3.78L158.54 9.51L158.54 9.51Q158.54 10.99 159.26 11.75L159.26 11.75L159.26 11.75Q159.99 12.52 161.41 12.52L161.41 12.52L161.41 12.52Q162.81 12.52 163.53 11.75L163.53 11.75L163.53 11.75Q164.26 10.99 164.26 9.51L164.26 9.51L164.26 3.78L164.96 3.78ZM183.36 3.78L183.36 13.02L182.69 13.02L182.69 6.13L182.77 4.45L182.76 4.45L179.38 13.02L178.74 13.02L175.36 4.45L175.35 4.45L175.43 6.13L175.43 13.02L174.76 13.02L174.76 3.78L175.81 3.78L178.60 10.78L179.06 12.19L179.07 12.19L179.52 10.79L182.31 3.78L183.36 3.78ZM199.56 13.02L198.39 10.12L193.97 10.12L192.82 13.02L192.08 13.02L195.78 3.78L196.60 3.78L200.30 13.02L199.56 13.02ZM194.24 9.48L198.14 9.48L196.53 5.45L196.20 4.47L196.18 4.47L195.85 5.42L194.24 9.48ZM216.12 3.78L216.12 13.02L215.25 13.02L210.35 5.77L209.66 4.54L209.65 4.54L209.69 5.70L209.69 13.02L209.02 13.02L209.02 3.78L209.90 3.78L214.79 11.02L215.49 12.26L215.46 11.10L215.46 3.78L216.12 3.78ZM226.73 3.78L226.73 13.02L226.03 13.02L226.03 3.78L226.73 3.78ZM242.94 3.78L242.94 4.42L239.57 4.42L239.57 13.02L238.87 13.02L238.87 4.42L235.49 4.42L235.49 3.78L242.94 3.78ZM257.68 3.78L254.41 9.42L254.41 13.02L253.71 13.02L253.71 9.42L250.43 3.78L251.26 3.78L254.06 8.69L256.86 3.78L257.68 3.78Z"></path></g></svg>